<svg width="29" height="29" viewBox="0 0 29 29" fill="none" xmlns="http://www.w3.org/2000/svg">
<path d="M5.89062 28.0938H4.07812C3.7176 28.0938 3.37183 27.9505 3.1169 27.6956C2.86197 27.4407 2.71875 27.0949 2.71875 26.7344V18.5781C2.71875 18.2176 2.86197 17.8718 3.1169 17.6169C3.37183 17.362 3.7176 17.2188 4.07812 17.2188H5.89062C6.25115 17.2188 6.59692 17.362 6.85185 17.6169C7.10678 17.8718 7.25 18.2176 7.25 18.5781V26.7344C7.25 27.0949 7.10678 27.4407 6.85185 27.6956C6.59692 27.9505 6.25115 28.0938 5.89062 28.0938ZM18.5781 28.0938H16.7656C16.4051 28.0938 16.0593 27.9505 15.8044 27.6956C15.5495 27.4407 15.4062 27.0949 15.4062 26.7344V13.1406C15.4062 12.7801 15.5495 12.4343 15.8044 12.1794C16.0593 11.9245 16.4051 11.7812 16.7656 11.7812H18.5781C18.9387 11.7812 19.2844 11.9245 19.5393 12.1794C19.7943 12.4343 19.9375 12.7801 19.9375 13.1406V26.7344C19.9375 27.0949 19.7943 27.4407 19.5393 27.6956C19.2844 27.9505 18.9387 28.0938 18.5781 28.0938ZM24.9219 28.0938H23.1094C22.7488 28.0938 22.4031 27.9505 22.1482 27.6956C21.8932 27.4407 21.75 27.0949 21.75 26.7344V6.79688C21.75 6.43635 21.8932 6.09058 22.1482 5.83565C22.4031 5.58072 22.7488 5.4375 23.1094 5.4375H24.9219C25.2824 5.4375 25.6282 5.58072 25.8831 5.83565C26.138 6.09058 26.2812 6.43635 26.2812 6.79688V26.7344C26.2812 27.0949 26.138 27.4407 25.8831 27.6956C25.6282 27.9505 25.2824 28.0938 24.9219 28.0938ZM12.2344 28.0938H10.4219C10.0613 28.0938 9.71558 27.9505 9.46065 27.6956C9.20572 27.4407 9.0625 27.0949 9.0625 26.7344V2.26562C9.0625 1.9051 9.20572 1.55933 9.46065 1.3044C9.71558 1.04947 10.0613 0.90625 10.4219 0.90625H12.2344C12.5949 0.90625 12.9407 1.04947 13.1956 1.3044C13.4505 1.55933 13.5938 1.9051 13.5938 2.26562V26.7344C13.5938 27.0949 13.4505 27.4407 13.1956 27.6956C12.9407 27.9505 12.5949 28.0938 12.2344 28.0938Z" fill="#9DB2CE"/>
</svg>
