<svg width="38" height="39" viewBox="0 0 38 39" fill="none" xmlns="http://www.w3.org/2000/svg">
<path d="M21.735 9.50099L32.9937 20.4578C33.5336 20.9505 34.2477 21.2177 34.9848 21.2029C35.722 21.1881 36.4244 20.8926 36.9435 20.3787C37.4626 19.8648 37.7576 19.173 37.7661 18.4496C37.7745 17.7262 37.4959 17.028 36.989 16.5027L20.8676 0.810837C20.6035 0.552347 20.2899 0.347641 19.9449 0.208492C19.5999 0.0693421 19.2302 -0.00150566 18.8572 2.24037e-05C18.4841 0.00155046 18.115 0.0754242 17.7712 0.217395C17.4273 0.359367 17.1154 0.566634 16.8534 0.827279L0.858313 16.6507C0.588221 16.9087 0.373207 17.217 0.225815 17.5574C0.0784231 17.8979 0.00160575 18.2637 -0.000154855 18.6336C-0.00191546 19.0035 0.0714159 19.37 0.21556 19.7117C0.359705 20.0534 0.571776 20.3636 0.839399 20.624C1.10702 20.8845 1.42484 21.09 1.7743 21.2286C2.12377 21.3673 2.49788 21.4362 2.87481 21.4315C3.25175 21.4267 3.62395 21.3483 3.96971 21.2009C4.31547 21.0535 4.62786 20.84 4.88865 20.5729L16.0572 9.52425L16.1666 36.2261C16.1696 36.9649 16.4716 37.6721 17.0062 38.1923C17.5407 38.7125 18.264 39.0031 19.0169 39C19.7698 38.9969 20.4907 38.7005 21.021 38.1759C21.5512 37.6513 21.8474 36.9416 21.8444 36.2028L21.735 9.50099Z" fill="#01CC88"/>
</svg>
