<svg width="24" height="24" viewBox="0 0 24 24" fill="none" xmlns="http://www.w3.org/2000/svg">
<g clip-path="url(#clip0_90_2100)">
<path d="M8.56002 11.9C8.84092 12.1812 8.9987 12.5625 8.9987 12.96C8.9987 13.3575 8.84092 13.7387 8.56002 14.02L7.58602 14.996H16C16.3978 14.996 16.7794 15.154 17.0607 15.4353C17.342 15.7166 17.5 16.0982 17.5 16.496C17.5 16.8938 17.342 17.2753 17.0607 17.5566C16.7794 17.838 16.3978 17.996 16 17.996H7.58602L8.56102 18.97C8.84242 19.2514 9.0005 19.633 9.0005 20.031C9.0005 20.4289 8.84242 20.8106 8.56102 21.092C8.27963 21.3734 7.89798 21.5315 7.50002 21.5315C7.10207 21.5315 6.72042 21.3734 6.43902 21.092L2.90402 17.556C2.62282 17.2747 2.46484 16.8932 2.46484 16.4955C2.46484 16.0977 2.62282 15.7163 2.90402 15.435L6.43902 11.899C6.57832 11.7596 6.74372 11.649 6.92578 11.5736C7.10783 11.4981 7.30296 11.4593 7.50002 11.4593C7.69709 11.4593 7.89222 11.4981 8.07427 11.5736C8.25632 11.649 8.42172 11.7596 8.56102 11.899L8.56002 11.9ZM15.44 2.89999C15.7024 2.63738 16.0528 2.4814 16.4235 2.46219C16.7942 2.44298 17.1589 2.56191 17.447 2.79599L17.561 2.89899L21.096 6.43499C21.3585 6.69749 21.5143 7.04798 21.5333 7.41869C21.5523 7.7894 21.4332 8.154 21.199 8.44199L21.096 8.55599L17.561 12.092C17.2898 12.3672 16.9228 12.5272 16.5365 12.5385C16.1502 12.5498 15.7745 12.4116 15.4876 12.1527C15.2007 11.8938 15.0249 11.5342 14.9966 11.1488C14.9684 10.7634 15.09 10.3819 15.336 10.084L15.439 9.96999L16.414 8.99599H8.00002C7.61289 8.99866 7.23971 8.85156 6.95854 8.58543C6.67737 8.31931 6.50998 7.95478 6.49138 7.56808C6.47279 7.18139 6.60442 6.80248 6.85875 6.5106C7.11308 6.21872 7.47042 6.03648 7.85602 6.00199L8.00002 5.99599H16.414L15.439 5.02099C15.2996 4.88169 15.1891 4.71629 15.1136 4.53424C15.0382 4.35218 14.9993 4.15705 14.9993 3.95999C14.9993 3.76292 15.0382 3.56779 15.1136 3.38574C15.1891 3.20369 15.2996 3.03829 15.439 2.89899L15.44 2.89999Z" fill="#9DB2CE"/>
</g>
<defs>
<clipPath id="clip0_90_2100">
<rect width="24" height="24" fill="white"/>
</clipPath>
</defs>
</svg>
