<svg width="47" height="46" viewBox="0 0 47 46" fill="none" xmlns="http://www.w3.org/2000/svg">
<path d="M23.2143 46C20.003 46 16.9851 45.3959 14.1607 44.1876C11.3363 42.9793 8.87946 41.341 6.79018 39.2725C4.70089 37.2025 3.04726 34.7683 1.82929 31.97C0.61131 29.1717 0.00154762 26.1817 -4.88286e-10 23C-4.2074e-10 19.8183 0.609762 16.8283 1.82929 14.03C3.04881 11.2317 4.70244 8.7975 6.79018 6.7275C8.87946 4.6575 11.3363 3.01913 14.1607 1.8124C16.9851 0.605667 20.003 0.00153333 23.2143 -4.53409e-10C25.7292 -5.02528e-10 28.1086 0.364166 30.3527 1.0925C32.5967 1.82083 34.6667 2.83667 36.5625 4.14L33.1964 7.5325C31.7262 6.6125 30.1592 5.89337 28.4955 5.3751C26.8318 4.85683 25.0714 4.59847 23.2143 4.6C18.0685 4.6 13.6864 6.3917 10.068 9.9751C6.4497 13.5585 4.64131 17.9001 4.64286 23C4.64286 28.0983 6.45125 32.44 10.068 36.0249C13.6848 39.6098 18.0669 41.4015 23.2143 41.4C28.3601 41.4 32.7422 39.6083 36.3605 36.0249C39.9789 32.4415 41.7873 28.0999 41.7857 23C41.7857 22.31 41.747 21.62 41.6696 20.93C41.5923 20.24 41.4762 19.5692 41.3214 18.9175L45.0938 15.18C45.5193 16.4067 45.8482 17.6717 46.0804 18.975C46.3125 20.2783 46.4286 21.62 46.4286 23C46.4286 26.1817 45.8188 29.1717 44.5993 31.97C43.3798 34.7683 41.7261 37.2025 39.6384 39.2725C37.5491 41.3425 35.0923 42.9816 32.2679 44.1899C29.4435 45.3982 26.4256 46.0015 23.2143 46ZM19.9643 33.58L10.0982 23.805L13.3482 20.585L19.9643 27.14L43.1786 4.0825L46.4286 7.3025L19.9643 33.58Z" fill="#5A27C8"/>
</svg>
