<svg width="38" height="44" viewBox="0 0 38 44" fill="none" xmlns="http://www.w3.org/2000/svg">
<path d="M21.9477 32.8322L33.1803 20.5308C33.7191 19.9774 34.4353 19.6735 35.1771 19.6836C35.9189 19.6936 36.6282 20.0168 37.1549 20.5846C37.6816 21.1524 37.9844 21.9204 37.9992 22.7261C38.0141 23.5317 37.7397 24.3118 37.2343 24.9013L21.1504 42.5187C20.887 42.8089 20.5733 43.0396 20.2273 43.1976C19.8814 43.3556 19.5101 43.4377 19.1347 43.4392C18.7594 43.4408 18.3874 43.3617 18.0402 43.2066C17.6929 43.0514 17.3773 42.8233 17.1115 42.5353L0.881004 25.0502C0.607018 24.7651 0.388009 24.4236 0.236758 24.0457C0.0855067 23.6678 0.00504201 23.261 5.88566e-05 22.8491C-0.0049243 22.4371 0.0656739 22.0283 0.207734 21.6464C0.349794 21.2645 0.560471 20.9172 0.827472 20.6248C1.09447 20.3324 1.41245 20.1008 1.76285 19.9433C2.11325 19.7859 2.48906 19.7058 2.86835 19.7079C3.24763 19.7099 3.6228 19.7939 3.97195 19.9551C4.32111 20.1163 4.63727 20.3514 4.90197 20.6466L16.2349 32.8556L16.1131 3.1143C16.1097 2.29144 16.4074 1.50106 16.9407 0.917018C17.474 0.332977 18.1992 0.00312556 18.9568 2.25254e-05C19.7143 -0.00308051 20.4422 0.320819 20.9803 0.900472C21.5183 1.48012 21.8225 2.26804 21.8259 3.0909L21.9477 32.8322Z" fill="#067FCD"/>
</svg>
