<svg width="28" height="46" viewBox="0 0 28 46" fill="none" xmlns="http://www.w3.org/2000/svg">
<path d="M0.00109795 11.7152C-0.00596992 11.8807 0.0211436 12.0459 0.0807701 12.2006C0.140397 12.3554 0.231276 12.4963 0.34782 12.6149C0.464365 12.7335 0.604112 12.8271 0.758466 12.8901C0.912821 12.953 1.07852 12.984 1.24538 12.9811H5.50485C6.21734 12.9811 6.78527 12.402 6.8782 11.6999C7.34287 8.33801 9.66622 5.88837 13.8069 5.88837C17.3487 5.88837 20.5911 7.64617 20.5911 11.8741C20.5911 15.1283 18.6601 16.6248 15.6088 18.9002C12.1341 21.4062 9.38225 24.3324 9.57845 29.0831L9.59393 30.1952C9.59935 30.5314 9.73773 30.8521 9.97921 31.0879C10.2207 31.3238 10.5459 31.4559 10.8847 31.4559H15.0719C15.4142 31.4559 15.7425 31.3209 15.9846 31.0806C16.2266 30.8404 16.3626 30.5145 16.3626 30.1747V29.6366C16.3626 25.957 17.7721 24.8859 21.5772 22.0212C24.7215 19.6484 28 17.0143 28 11.4846C28 3.74109 21.412 0 14.1993 0C7.65781 0 0.491582 3.02362 0.00109795 11.7152ZM8.03987 41.2493C8.03987 43.9808 10.2341 46 13.2545 46C16.3988 46 18.5621 43.9808 18.5621 41.2493C18.5621 38.4205 16.3936 36.432 13.2493 36.432C10.2341 36.432 8.03987 38.4205 8.03987 41.2493Z" fill="#01CCC0"/>
</svg>
