<svg width="42" height="41" viewBox="0 0 42 41" fill="none" xmlns="http://www.w3.org/2000/svg">
<path fill-rule="evenodd" clip-rule="evenodd" d="M17.402 2.13541H17.5C17.8481 2.13541 18.1819 2.27039 18.4281 2.51068C18.6742 2.75096 18.8125 3.07685 18.8125 3.41666C18.8125 3.75647 18.6742 4.08236 18.4281 4.32264C18.1819 4.56292 17.8481 4.69791 17.5 4.69791C14.1628 4.69791 11.7933 4.70132 9.9925 4.93707C8.23375 5.1677 7.21875 5.60161 6.4785 6.32424C5.73825 7.04686 5.29375 8.0377 5.0575 9.75628C4.816 11.5124 4.8125 13.8255 4.8125 17.0833C4.8125 17.4231 4.67422 17.749 4.42808 17.9893C4.18194 18.2296 3.8481 18.3646 3.5 18.3646C3.1519 18.3646 2.81806 18.2296 2.57192 17.9893C2.32578 17.749 2.1875 17.4231 2.1875 17.0833V16.9877C2.1875 13.8477 2.1875 11.3604 2.45525 9.41461C2.73175 7.41245 3.31275 5.79124 4.62175 4.5117C5.9325 3.23386 7.59325 2.6667 9.64425 2.39678C11.6392 2.13541 14.1855 2.13541 17.402 2.13541ZM32.0057 4.93707C30.2085 4.70132 27.8372 4.69791 24.5 4.69791C24.1519 4.69791 23.8181 4.56292 23.5719 4.32264C23.3258 4.08236 23.1875 3.75647 23.1875 3.41666C23.1875 3.07685 23.3258 2.75096 23.5719 2.51068C23.8181 2.27039 24.1519 2.13541 24.5 2.13541H24.598C27.8145 2.13541 30.3625 2.13541 32.3558 2.39678C34.4067 2.6667 36.0675 3.23386 37.3783 4.5117C38.6872 5.79124 39.2682 7.41245 39.5448 9.41461C39.8125 11.3621 39.8125 13.8477 39.8125 16.9877V17.0833C39.8125 17.4231 39.6742 17.749 39.4281 17.9893C39.1819 18.2296 38.8481 18.3646 38.5 18.3646C38.1519 18.3646 37.8181 18.2296 37.5719 17.9893C37.3258 17.749 37.1875 17.4231 37.1875 17.0833C37.1875 13.8255 37.184 11.5124 36.9425 9.75457C36.7062 8.0377 36.2617 7.04686 35.5215 6.32424C34.7812 5.60161 33.7662 5.1677 32.0057 4.93707ZM3.5 22.6354C3.8481 22.6354 4.18194 22.7704 4.42808 23.0107C4.67422 23.251 4.8125 23.5768 4.8125 23.9167C4.8125 27.1744 4.816 29.4892 5.0575 31.2454C5.29375 32.9623 5.73825 33.9531 6.4785 34.6757C7.21875 35.3984 8.23375 35.8323 9.99425 36.0629C11.7933 36.2987 14.1628 36.3021 17.5 36.3021C17.8481 36.3021 18.1819 36.4371 18.4281 36.6773C18.6742 36.9176 18.8125 37.2435 18.8125 37.5833C18.8125 37.9231 18.6742 38.249 18.4281 38.4893C18.1819 38.7296 17.8481 38.8646 17.5 38.8646H17.402C14.1855 38.8646 11.6375 38.8646 9.64425 38.6032C7.59325 38.3333 5.9325 37.7661 4.62175 36.4883C3.31275 35.2087 2.73175 33.5875 2.45525 31.5854C2.1875 29.6379 2.1875 27.1522 2.1875 24.0123V23.9167C2.1875 23.5768 2.32578 23.251 2.57192 23.0107C2.81806 22.7704 3.1519 22.6354 3.5 22.6354ZM38.5 22.6354C38.8481 22.6354 39.1819 22.7704 39.4281 23.0107C39.6742 23.251 39.8125 23.5768 39.8125 23.9167V24.0123C39.8125 27.1522 39.8125 29.6396 39.5448 31.5854C39.2682 33.5875 38.6872 35.2087 37.3783 36.4883C36.0675 37.7661 34.4067 38.3333 32.3558 38.6032C30.3608 38.8646 27.8145 38.8646 24.598 38.8646H24.5C24.1519 38.8646 23.8181 38.7296 23.5719 38.4893C23.3258 38.249 23.1875 37.9231 23.1875 37.5833C23.1875 37.2435 23.3258 36.9176 23.5719 36.6773C23.8181 36.4371 24.1519 36.3021 24.5 36.3021C27.8372 36.3021 30.2085 36.2987 32.0075 36.0629C33.7663 35.8323 34.7812 35.3984 35.5215 34.6757C36.2617 33.9531 36.7062 32.9623 36.9425 31.2437C37.184 29.4892 37.1875 27.1744 37.1875 23.9167C37.1875 23.5768 37.3258 23.251 37.5719 23.0107C37.8181 22.7704 38.1519 22.6354 38.5 22.6354Z" fill="white"/>
<path opacity="0.5" d="M17.5 9.39581H24.5C27.8005 9.39581 29.449 9.39581 30.4745 10.3969C31.437 11.3365 31.4965 12.8125 31.5 15.6551V24.7708C31.5 27.9927 31.5 29.602 30.4745 30.6031C29.449 31.6041 27.8005 31.6041 24.5 31.6041H17.5C14.1995 31.6041 12.551 31.6041 11.5255 30.6031C10.5 29.602 10.5 27.9927 10.5 24.7708V15.6551C10.5035 12.8125 10.563 11.3365 11.5255 10.3969C12.551 9.39581 14.1995 9.39581 17.5 9.39581Z" fill="white"/>
<path d="M32.1474 15.8875C31.9391 15.8106 31.7238 15.7337 31.4998 15.6552C28.2921 14.3261 19.5998 12.464 10.4998 15.6552C10.2758 15.732 10.0606 15.8089 9.85235 15.8875C8.91075 16.2342 8.00147 16.6595 7.1346 17.1585C6.8083 17.3495 6.49283 17.5577 6.1896 17.782L6.1721 17.7974L6.1651 17.8025L6.1616 17.8059C5.89333 18.0227 5.72253 18.3347 5.68987 18.6732C5.65722 19.0116 5.76364 19.3489 5.98572 19.6108C6.20781 19.8727 6.52737 20.0377 6.8741 20.0696C7.22083 20.1015 7.56633 19.9976 7.8346 19.7808L7.8521 19.7671L7.96235 19.6868C8.13177 19.5704 8.30573 19.4604 8.48385 19.3571C9.22187 18.9336 9.9959 18.5729 10.7973 18.2792C12.9218 17.4814 16.2626 16.6562 21.0016 16.6562C25.7423 16.6562 29.0813 17.4814 31.2041 18.2792C32.0055 18.5724 32.7795 18.9325 33.5176 19.3554C33.7343 19.482 33.9445 19.6189 34.1476 19.7654L34.1668 19.7808C34.4352 19.9946 34.7793 20.0961 35.1241 20.0633C35.4688 20.0305 35.7863 19.8659 36.0073 19.6056C36.2283 19.3452 36.3349 19.0101 36.3039 18.6733C36.2728 18.3365 36.1067 18.0253 35.8416 17.8077L34.9998 18.7917C35.8398 17.8077 35.8381 17.8059 35.8381 17.8059L35.8346 17.8025L35.8276 17.7974L35.8101 17.782C35.7299 17.7195 35.6476 17.6597 35.5633 17.6027C35.3367 17.4457 35.1037 17.2975 34.8651 17.1585C33.9982 16.6595 33.0889 16.2342 32.1474 15.8875Z" fill="white"/>
</svg>
